<?xml version="1.0" encoding="UTF-8"?>
<svg width="24px" height="24px" version="1.1" viewBox="0 0 1200 1200" xmlns="http://www.w3.org/2000/svg">
 <path d="m965.65 178.15h-84.398v-84.398h-56.25v84.398h-450v-84.398h-56.25v84.398h-84.352c-77.551 0-140.65 63.102-140.65 140.65v646.9c0 77.551 63.102 140.65 140.65 140.65h731.25c77.551 0 140.65-63.102 140.65-140.65l0.003906-506.3v-140.65c-0.050781-77.551-63.152-140.6-140.65-140.6zm84.352 787.5c0 46.5-37.852 84.352-84.352 84.352h-731.25c-46.547 0-84.398-37.852-84.398-84.352v-506.25h900zm0-562.5h-900v-84.398c0-46.551 37.852-84.398 84.398-84.398h84.398v56.25h56.203v-56.203h450v56.25h56.25v-56.25h84.398c46.5 0 84.352 37.801 84.352 84.352z"/>
</svg>
