<?xml version="1.0" encoding="UTF-8"?>
<svg width="36px" height="36px" version="1.1" viewBox="0 0 1200 1200" xmlns="http://www.w3.org/2000/svg">
 <path d="m288.94 192.79c0.9375 0 1.8281 0.14062 2.6719 0.375-0.84375-0.23438-1.7344-0.375-2.6719-0.375zm618.42 57.094h0.046875zm0 0h0.046875zm-679.97 19.875c1.5 0.75 3.1875 1.1719 4.9688 1.2188h0.14062-0.14062c-1.7812-0.046875-3.4688-0.46875-4.9688-1.2188zm106.59-54.938-0.046875 45.234v0.09375l-0.09375 45.234-34.266-0.046875 0.09375-90.562zm472.13 0.65625 34.266 0.046875-0.14062 90.516-34.266-0.046875zm100.78 56.344 0.375 0.046875h0.14062-0.14062l10.688 0.65625 8.7656 1.7344 7.125 2.7656 5.6719 3.6094 4.5469 4.5938 3.6094 5.6719 2.7656 7.125 1.7344 8.7656 0.60938 10.734-0.046875 44.953-765.74-1.0312 0.046874-44.953 0.65625-10.734 1.7344-8.7188 2.7656-7.1719 3.6094-5.6719 4.5469-4.5469 5.7188-3.6094 7.125-2.7188 8.7656-1.7344 10.688-0.60938h0.046874l0.32813-0.046875-0.32813 0.046875 44.953 0.046875-0.046876 45.281c-0.046874 6.0469 4.875 10.969 10.969 10.969l56.25 0.09375c5.625 0 10.266-4.2188 10.922-9.6562 0.046874-0.1875 0.046874-0.42188 0.046874-0.60938 0.046876-0.23438 0.046876-0.46875 0.046876-0.70312l0.046874-45.281 428.16 0.5625-0.046875 45.281c0 6.0938 4.875 11.016 10.969 11.016l56.25 0.09375c0.9375 0 1.875-0.14062 2.7188-0.32812 0.32812-0.09375 0.60938-0.1875 0.9375-0.28125 4.2656-1.5 7.3594-5.5781 7.3594-10.406l0.046875-45.234 45 0.046875zm56.062 112.64h0.046875zm0.14062 0h0.046875zm0.70312 0h0.046875zm-0.375 0h0.09375zm-736.31 54.094c1.5 0.75 3.2344 1.2188 5.0156 1.2188h5.4844-5.4844c-1.7812 0-3.5156-0.46875-5.0156-1.2188zm669.24 2.1094-0.14062 90.516-146.81-0.1875 0.14062-90.562zm-337.6-0.46875-0.14062 90.562-146.81-0.1875 0.14062-90.562zm168.79 0.23438h0.09375-0.09375l-0.14062 90.562-146.81-0.23438 0.14062-90.516zm-495.32 89.859h-0.1875zm157.74-90.328-0.14063 90.562-146.81-0.1875 0.14062-90.562zm512.76 112.27c1.3594 0.60938 2.8594 0.98438 4.4531 0.98438h-0.28125c-1.5-0.046875-2.9062-0.375-4.1719-0.98438zm4.3594 0.98438h0.09375zm-157.69-0.23438 147.47 0.1875h-0.65625l-0.046875 38.625c-14.672-2.8594-29.812-4.3594-45.281-4.4062-36.375-0.046875-70.828 8.1562-101.58 22.781zm203.02 57.469c5.7656 2.7656 11.438 5.7656 16.969 9-5.5312-3.2344-11.203-6.2344-17.016-9zm-371.86-57.703 146.86 0.1875-0.09375 69.188c-10.406 6.3281-20.25 13.5-29.484 21.328l-117.38-0.14062zm-337.55-11.297-0.046875 10.875 146.86 0.1875-0.14062 90.562-146.81-0.23438 0.09375-90.516zm168.74 11.062 146.86 0.23438-0.14062 90.516-146.81-0.1875zm-180 112.31h0.046875zm179.86 0.23438 146.81 0.1875-0.09375 90.562-146.81-0.1875zm-21.984-0.046875-0.09375 90.562-146.81-0.1875 0.09375-90.562zm285.56 0.42188c-23.156 25.641-40.734 56.438-50.906 90.469l-43.969-0.046875 0.09375-90.562zm175.55 34.5c-6.0938 0-11.016 4.9219-11.016 10.969l-0.14063 112.55c-0.046874 6.0469 4.875 10.969 10.969 11.016l112.5 0.14062c6.0938 0 11.016-4.9219 11.016-10.969 0-6.0938-4.875-11.016-10.969-11.016l-101.53-0.14062 0.14062-101.53c0-6.0938-4.9219-11.016-10.969-11.016zm-292.45 77.859-0.09375 90.562-146.86-0.1875 0.14062-90.562zm-168.79-0.23438-0.14062 90.562-146.81-0.1875 0.14062-90.562zm190.78 0.28125 38.625 0.046875c-2.8594 14.625-4.3594 29.766-4.4062 45.281 0 15.469 1.4531 30.609 4.2656 45.281l-38.625-0.046875v-0.046875zm-186.52 110.06c0 0.046875 0.046874 0.046875 0.046874 0.046875s-0.046874 0-0.046874-0.046875zm0.046874 0.046875c0.28125 0.23438 0.5625 0.42188 0.84375 0.5625-0.28125-0.14062-0.5625-0.32812-0.84375-0.5625zm1.0312 0.70312c0.09375 0.046875 0.14063 0.09375 0.23438 0.14062-0.09375-0.046875-0.14063-0.09375-0.23438-0.14062zm0.28125 0.14062 0.28125 0.14062-0.28125-0.14062zm7.5469 1.0781c-0.375 0.09375-0.79688 0.14062-1.2188 0.1875 0.42187-0.046875 0.84375-0.09375 1.2188-0.1875zm-2.5312 0.23438h0.09375zm0.14062 0h-0.046874 0.09375-0.09375zm-213.32-506.68 765.74 1.0312h5.3906-5.3906l-0.32812 225.98c-10.969-5.25-22.406-9.7031-34.266-13.219l0.09375-55.031 0.14062-112.5c0-5.3906-3.8438-9.8438-8.9531-10.828-0.65625-0.14063-1.3125-0.1875-2.0156-0.1875l-675.19-0.89063c-6.0938 0-11.016 4.875-11.016 10.969v0.23438l-0.14062 112.31-0.14062 112.5-0.1875 112.55-0.14062 112.55c0 6.0469 4.9219 10.969 10.969 10.969l165.84 0.23437h2.7656c-0.5625 0-1.1719-0.046874-1.7344-0.14062 0.46875 0.046874 0.9375 0.09375 1.4062 0.14062-1.3594-0.046874-2.625-0.375-3.8438-0.89062 0.65625 0.28125 1.3125 0.51562 2.0156 0.65625 0.75 0.14062 1.4531 0.23437 2.25 0.23437h0.14062l223.78 0.32813c3.4688 11.812 7.875 23.297 13.125 34.266l-405.42-0.51562-10.781-0.65625-8.7188-1.7344-7.125-2.7656-5.7188-3.6562-4.5469-4.5469-3.6094-5.6719-2.7188-7.1719-1.7344-8.7188-0.60938-10.734zm663.84 282.24c87.141 0.09375 157.69 70.828 157.6 158.02-0.14062 87.141-70.875 157.69-158.02 157.6-87.188-0.14062-157.74-70.875-157.64-158.02 0.14062-87.188 70.875-157.74 158.06-157.6zm0-21.984c-99.281-0.14062-179.9 80.25-180 179.53-0.14063 99.281 80.25 179.9 179.53 180.05s179.9-80.25 180-179.58c0.14062-99.281-80.25-179.86-179.53-180zm0.046874-34.312c36.75 0.046875 71.344 9.375 101.53 25.734 0.84375 0.46875 1.6875 0.9375 2.5312 1.4062 65.578 36.656 109.83 106.78 109.73 187.22-0.14063 118.27-96.141 213.98-214.36 213.79-118.22-0.14062-213.94-96.141-213.79-214.36 0.14062-118.22 96.141-213.94 214.36-213.79zm-55.688-415.92c-4.2656 0-7.9688 2.4375-9.7969 6-0.79688 1.5-1.2188 3.1875-1.2188 5.0156l-0.046876 45.234-428.16-0.5625 0.046875-45.234v-0.046875c0-1.7812-0.42188-3.4688-1.1719-4.9688-1.4062-2.7656-3.8906-4.8281-6.8906-5.625-0.9375-0.28125-1.875-0.375-2.9062-0.375l-56.062-0.09375h-0.1875c-6.0938 0-11.016 4.9219-11.016 10.969l-0.046875 45.281-45.188-0.046875h-0.84375 0.09375-0.23438l-11.578 0.65625c-0.51562 0.046875-1.0312 0.14062-1.5 0.23438l-10.453 2.0625c-0.60938 0.09375-1.1719 0.28125-1.7812 0.51562l-9.0469 3.4688c-0.65625 0.23438-1.3125 0.5625-1.9219 0.98438l-7.6406 4.8281c-0.70312 0.42188-1.3125 0.9375-1.875 1.5l-6.2812 6.2344c-0.5625 0.5625-1.0781 1.2188-1.5 1.875l-4.875 7.6406c-0.375 0.60938-0.70312 1.2656-0.98438 1.9688l-3.4688 9c-0.23438 0.60938-0.42188 1.1719-0.5625 1.7812l-2.0625 10.453c-0.09375 0.46875-0.1875 0.98438-0.23438 1.5l-0.70312 11.719v0.9375l-0.09375 56.062v0.1875l-0.65625 506.21c0 0.32812 0 0.65625 0.046875 0.9375l0.65625 11.531c0 0.51562 0.09375 0.98438 0.1875 1.5l2.0625 10.406c0.09375 0.60938 0.28125 1.2188 0.51562 1.7812l3.4688 9.0469c0.23438 0.70312 0.5625 1.3594 0.98438 1.9688l4.8281 7.6406c0.42188 0.70312 0.9375 1.3125 1.5 1.875l6.2344 6.2812c0.5625 0.5625 1.2188 1.0312 1.875 1.5l7.6406 4.875c0.60938 0.375 1.2656 0.70312 1.9688 0.98438l9 3.4688c0.60938 0.23438 1.2188 0.42188 1.8281 0.51562l10.406 2.1094c0.46875 0.09375 0.98438 0.14062 1.5 0.1875l11.578 0.70312h0.23438-0.23438c0.32812 0 0.60938 0.046875 0.89062 0.046875l417.71 0.5625v-0.046875c41.438 67.594 115.97 112.73 201.05 112.83 130.36 0.1875 236.21-105.38 236.39-235.74 0.09375-85.078-44.812-159.71-112.27-201.32l0.32812-248.95 0.09375-55.875v-0.375c0-0.28125 0-0.51562-0.046875-0.75l-0.65625-11.719c-0.046875-0.51562-0.09375-1.0312-0.1875-1.5l-2.0625-10.453c-0.14062-0.60938-0.32812-1.1719-0.51562-1.7812l-3.4688-9.0469c-0.28125-0.65625-0.60938-1.3125-0.98438-1.9219l-4.875-7.6406c-0.42188-0.70312-0.9375-1.3125-1.5-1.875l-6.2344-6.2812c-0.5625-0.5625-1.1719-1.0781-1.875-1.5l-7.6406-4.875c-0.60938-0.375-1.2656-0.70312-1.9219-0.98438l-9.0469-3.4688c-0.5625-0.23438-1.1719-0.42188-1.7812-0.5625l-10.406-2.0625c-0.51562-0.09375-1.0312-0.1875-1.5469-0.1875l-11.766-0.75h-0.89062l-45.047-0.046875 0.046875-45.281c0-6.0938-4.875-11.016-10.969-11.016h-0.1875z"/>
</svg>
