<svg width="25" height="25" viewBox="0 0 10 11" fill="none" xmlns="http://www.w3.org/2000/svg">
<path d="M0.57077 0.5H9.42923C9.72951 0.5 10 0.770491 10 1.07077V9.92923C10 10.2295 9.72951 10.5 9.42923 10.5H0.57077C0.270491 10.5 0 10.2295 0 9.92923V1.07077C0 0.770491 0.270491 0.5 0.57077 0.5ZM7.10147 6.11497H8.48275L8.54281 4.79374H7.10147V3.81796C7.10147 3.44273 7.17642 3.2323 7.65687 3.2323H8.49765L8.52791 2.00091C8.52791 2.00091 8.15269 1.94086 7.61218 1.94086C6.29096 1.94086 5.70529 2.76674 5.70529 3.65269V4.79374H4.72951V6.11497H5.70529V9.77837H7.10147V6.11497Z" fill="white"/>
</svg>
