<svg width="25" height="25" viewBox="0 0 10 11" fill="none" xmlns="http://www.w3.org/2000/svg">
<path fill-rule="evenodd" clip-rule="evenodd" d="M4.99998 8.22725C6.50621 8.22725 7.72725 7.00621 7.72725 5.49998C7.72725 3.99375 6.50621 2.77271 4.99998 2.77271C3.49375 2.77271 2.27271 3.99375 2.27271 5.49998C2.27271 7.00621 3.49375 8.22725 4.99998 8.22725ZM4.99998 7.31816C6.00411 7.31816 6.81816 6.50411 6.81816 5.49998C6.81816 4.49582 6.00411 3.6818 4.99998 3.6818C3.99582 3.6818 3.1818 4.49582 3.1818 5.49998C3.1818 6.50411 3.99582 7.31816 4.99998 7.31816Z" fill="white"/>
<path fill-rule="evenodd" clip-rule="evenodd" d="M0.297255 1.98912C0 2.57251 0 3.33622 0 4.86364V6.13636C0 7.66377 0 8.4275 0.297255 9.01086C0.558727 9.52405 0.975946 9.94127 1.48912 10.2027C2.07251 10.5 2.83622 10.5 4.36364 10.5H5.63636C7.16377 10.5 7.9275 10.5 8.51086 10.2027C9.02405 9.94127 9.44127 9.52405 9.70273 9.01086C10 8.4275 10 7.66377 10 6.13636V4.86364C10 3.33622 10 2.57251 9.70273 1.98912C9.44127 1.47595 9.02405 1.05873 8.51086 0.797255C7.9275 0.5 7.16377 0.5 5.63636 0.5H4.36364C2.83622 0.5 2.07251 0.5 1.48912 0.797255C0.975946 1.05873 0.558727 1.47595 0.297255 1.98912ZM5.63636 1.40909H4.36364C3.58493 1.40909 3.05557 1.4098 2.6464 1.44323C2.24784 1.47579 2.04402 1.53481 1.90184 1.60726C1.55972 1.78158 1.28158 2.05972 1.10726 2.40184C1.03481 2.54402 0.975791 2.74784 0.943227 3.1464C0.9098 3.55557 0.909091 4.08493 0.909091 4.86364V6.13636C0.909091 6.91509 0.9098 7.44441 0.943227 7.85359C0.975791 8.25218 1.03481 8.456 1.10726 8.59818C1.28158 8.94027 1.55972 9.21841 1.90184 9.39273C2.04402 9.46518 2.24784 9.52423 2.6464 9.55677C3.05557 9.59018 3.58493 9.59091 4.36364 9.59091H5.63636C6.41509 9.59091 6.94441 9.59018 7.35359 9.55677C7.75218 9.52423 7.956 9.46518 8.09818 9.39273C8.44027 9.21841 8.71841 8.94027 8.89273 8.59818C8.96518 8.456 9.02423 8.25218 9.05677 7.85359C9.09018 7.44441 9.09091 6.91509 9.09091 6.13636V4.86364C9.09091 4.08493 9.09018 3.55557 9.05677 3.1464C9.02423 2.74784 8.96518 2.54402 8.89273 2.40184C8.71841 2.05972 8.44027 1.78158 8.09818 1.60726C7.956 1.53481 7.75218 1.47579 7.35359 1.44323C6.94441 1.4098 6.41509 1.40909 5.63636 1.40909Z" fill="white"/>
</svg>
