<svg width="25" height="25" viewBox="0 0 25 25" fill="none" xmlns="http://www.w3.org/2000/svg">
<path d="M20.3527 20.4819V13.3368L21.7501 14.8323V25H19.7901L5.05388 6.74788V21.716C5.05388 22.3668 5.14191 22.86 5.31781 23.1953C5.51885 23.5306 5.82042 23.7575 6.22249 23.8758C6.62456 23.9744 7.1272 24.0237 7.73029 24.0237H8.63497V25H0V24.0237H0.980111C1.5581 24.0237 2.0482 23.9744 2.45028 23.8758C2.85233 23.7574 3.15393 23.5306 3.35496 23.1953C3.55598 22.86 3.65652 22.3668 3.65652 21.716V7.10077C3.65651 6.43024 3.54331 5.93717 3.31716 5.62161C3.11612 5.30605 2.81455 5.09892 2.41248 5.0003C2.03554 4.90169 1.55808 4.85236 0.980111 4.85236H0V3.87597H8.1058L20.3527 20.4819Z" fill="white"/>
<path d="M21.982 0.00560085C22.0239 -0.010387 22.0741 0.00858269 22.108 0.0531952C23.8318 2.31891 25.3449 4.59633 24.931 7.54022C24.5159 9.51414 22.8258 10.1587 20.8903 10.2669C20.9125 10.8663 21.0308 10.8677 21.1813 11.9243C21.4337 12.7828 21.8296 13.567 21.7703 13.5753C21.7648 13.5696 20.8748 12.6468 20.8448 12.6507L20.8111 12.3866C20.8104 12.383 20.767 12.1596 20.7606 12.1224C20.2159 8.9751 20.5851 7.33613 21.8254 5.035C20.7334 6.13458 19.8334 7.92868 20.1176 10.1837C20.1248 10.2412 20.1017 10.2922 20.0597 10.3108C20.0177 10.3297 19.9662 10.3117 19.9309 10.2669C18.5493 8.50507 18.1955 6.78563 18.8175 4.85545C19.1872 3.79082 19.9134 3.13157 20.5541 2.5499C21.3285 1.84696 21.9973 1.23974 21.9187 0.125296C21.9148 0.0691355 21.9399 0.0216246 21.982 0.00560085Z" fill="white"/>
</svg>
