<svg width="30" height="30" viewBox="0 0 10 11" fill="none" xmlns="http://www.w3.org/2000/svg">
<path d="M3.14486 10.5C1.98673 10.5 0.908141 10.0822 0 9.36356C0.537103 9.44383 1.0818 9.39292 1.60289 9.21374C2.12397 9.03456 2.61121 8.73065 3.03668 8.31939C2.60844 8.30974 2.19341 8.13535 1.84981 7.8207C1.50622 7.50605 1.25131 7.06693 1.12086 6.56495C1.24631 6.59515 1.37494 6.61081 1.5063 6.61081C1.69356 6.61081 1.87537 6.57949 2.04854 6.52356C1.58431 6.40788 1.16683 6.09832 0.866817 5.64732C0.566801 5.19632 0.402682 4.6316 0.402255 4.04878V4.01578C0.686678 4.21075 1.00496 4.31892 1.33039 4.33121C1.04919 4.10068 0.8187 3.78813 0.659457 3.42142C0.500214 3.05472 0.417164 2.64523 0.417708 2.22946C0.417708 1.76862 0.519976 1.3335 0.695878 0.961027C1.21099 1.74086 1.85365 2.37865 2.58214 2.83295C3.31062 3.28725 4.10863 3.54791 4.92432 3.598C4.82212 3.0568 4.86778 2.48923 5.05422 1.98317C5.24067 1.47712 5.5575 1.06082 5.95567 0.798725C6.35383 0.53663 6.81111 0.443364 7.25671 0.533368C7.7023 0.623372 8.11136 0.891625 8.42053 1.29659C8.87974 1.18475 9.32021 0.977863 9.72319 0.684746C9.56988 1.26919 9.24968 1.7655 8.82187 2.08181C9.22842 2.02209 9.62547 1.88826 10 1.68473C9.72383 2.19098 9.37734 2.63341 8.97641 2.99175C8.98005 3.09969 8.98277 3.20875 8.98277 3.31781C8.98232 6.6522 6.91832 10.5006 3.14486 10.5Z" fill="white"/>
</svg>
